<svg xmlns="http://www.w3.org/2000/svg" xmlns:xlink="http://www.w3.org/1999/xlink" width="1920" height="1080" viewBox="0 0 1920 1080"><defs><linearGradient id="a" x1="0.5" x2="0.5" y2="1" gradientUnits="objectBoundingBox"><stop offset="0" stop-color="#770a40"/><stop offset="1" stop-color="#004080"/></linearGradient><linearGradient id="c" x1="-0.139" y1="-0.203" x2="1.088" y2="0.787" gradientUnits="objectBoundingBox"><stop offset="0" stop-color="#a0547a"/><stop offset="1" stop-color="#2d6298"/></linearGradient><linearGradient id="d" x1="-0.139" y1="-0.203" x2="1.088" y2="0.787" gradientUnits="objectBoundingBox"><stop offset="0" stop-color="#2d6298"/><stop offset="1" stop-color="#a0547a"/></linearGradient><linearGradient id="e" x1="-0.139" y1="-0.203" x2="1.088" y2="0.787" gradientUnits="objectBoundingBox"><stop offset="0" stop-color="#7b204d"/><stop offset="1" stop-color="#2c6298"/></linearGradient><linearGradient id="f" x1="-0.139" y1="-0.203" x2="1.088" y2="0.787" gradientUnits="objectBoundingBox"><stop offset="0" stop-color="#2c6298"/><stop offset="1" stop-color="#7b204d"/></linearGradient><linearGradient id="g" x1="-0.139" y1="-0.203" x2="1.088" y2="0.787" xlink:href="#a"/><linearGradient id="h" x1="-0.139" y1="-0.203" x2="1.088" y2="0.787" gradientUnits="objectBoundingBox"><stop offset="0" stop-color="#004080"/><stop offset="1" stop-color="#770a40"/></linearGradient><clipPath id="j"><rect width="1920" height="1080"/></clipPath></defs><g id="i" clip-path="url(#j)"><rect width="1920" height="1080" fill="#fff"/><text transform="translate(193 55)" fill="#fff" font-size="32" font-family="CaviarDreams-Bold, Caviar Dreams" font-weight="700"><tspan x="0" y="0">Mental Healthcare Management System</tspan></text><path d="M901.267-10.44c497.595-5.873,896.539,380.759,891.066,863.565s-413.289,878.959-910.883,884.832S-15.089,1357.2-9.616,874.391,403.672-4.568,901.267-10.44Z" transform="matrix(-0.985, 0.174, -0.174, -0.985, 830.282, 1104.545)" opacity="0.08" fill="url(#c)"/><path d="M910.939.066C1408.533-5.807,1807.477,380.825,1802,863.631s-413.288,878.959-910.883,884.832S-5.417,1367.7.056,884.9,413.344,5.939,910.939.066Z" transform="matrix(0.985, -0.174, 0.174, 0.985, 1272.7, 657.37)" opacity="0.08" fill="url(#d)"/><path d="M866.36,0c478.477,0,866.36,350.337,866.36,782.5S1344.837,1565,866.36,1565,0,1214.663,0,782.5,387.883,0,866.36,0Z" transform="translate(791.57 1022.758) rotate(163)" opacity="0.08" fill="url(#e)"/><path d="M866.36,0c478.477,0,866.36,350.337,866.36,782.5S1344.837,1565,866.36,1565,0,1214.663,0,782.5,387.882,0,866.36,0Z" transform="translate(1322.762 747.825) rotate(-17)" opacity="0.08" fill="url(#f)"/><path d="M831.729,0c459.351,0,831.729,316.523,831.729,706.974s-372.378,706.974-831.729,706.974S0,1097.426,0,706.974,372.378,0,831.729,0Z" transform="matrix(-0.875, 0.485, -0.485, -0.875, 783.088, 829.875)" opacity="0.08" fill="url(#g)"/><path d="M831.728,0c459.351,0,831.729,316.523,831.729,706.974s-372.377,706.974-831.728,706.974S0,1097.426,0,706.974,372.378,0,831.728,0Z" transform="matrix(0.875, -0.485, 0.485, 0.875, 1331.244, 940.708)" opacity="0.08" fill="url(#h)"/><text transform="translate(759 54)" fill="#fff" font-size="17" font-family="CaviarDreams, Caviar Dreams"><tspan x="0" y="0">Practitioner Portal</tspan></text></g></svg>